<?xml version="1.0" standalone="no"?>
<!DOCTYPE svg PUBLIC "-//W3C//DTD SVG 20010904//EN"
 "http://www.w3.org/TR/2001/REC-SVG-20010904/DTD/svg10.dtd">
<svg version="1.0" xmlns="http://www.w3.org/2000/svg"
 width="600.000000pt" height="600.000000pt" viewBox="0 0 600.000000 600.000000"
 preserveAspectRatio="xMidYMid meet">
<metadata>
Created by potrace 1.11, written by Peter Selinger 2001-2013
</metadata>
<g transform="translate(0.000000,600.000000) scale(0.100000,-0.100000)"
fill="#000000" stroke="none">
<path d="M2858 5635 c-2 -1 -45 -5 -97 -9 -117 -8 -347 -48 -468 -81 -205 -55
-462 -168 -526 -230 -80 -78 -118 -171 -113 -277 5 -86 27 -136 110 -252 39
-54 86 -120 104 -145 18 -25 45 -63 59 -83 29 -43 39 -47 48 -19 23 75 358
232 610 287 435 95 890 37 1278 -163 98 -51 152 -92 162 -124 4 -11 10 -19 15
-17 19 7 260 352 277 396 12 32 18 73 18 132 -1 104 -30 176 -99 244 -108 104
-357 215 -622 275 -119 27 -184 38 -343 56 -54 7 -407 15 -413 10z"/>
<path d="M4562 4904 c-51 -16 -107 -48 -143 -83 -15 -14 -84 -105 -154 -201
l-127 -175 47 -13 c112 -32 375 -344 500 -592 80 -159 165 -413 180 -535 2
-16 7 -57 12 -90 10 -75 11 -390 0 -470 -19 -151 -38 -217 -78 -260 -19 -21
-18 -21 194 -89 160 -52 226 -69 267 -68 203 1 340 134 375 364 4 23 11 68 15
98 9 56 6 429 -4 487 -42 256 -71 380 -134 563 -56 162 -75 208 -146 350 -110
220 -238 404 -398 574 -105 112 -176 150 -287 152 -42 1 -95 -4 -119 -12z"/>
<path d="M1224 4891 c-144 -57 -346 -272 -504 -538 -57 -96 -148 -280 -181
-367 -91 -240 -157 -494 -184 -712 -13 -114 -15 -501 -2 -564 3 -14 8 -43 11
-65 20 -153 128 -277 271 -310 91 -22 155 -11 378 62 184 61 207 71 192 83
-43 36 -73 146 -90 335 -7 74 -8 296 -1 330 2 11 7 47 10 80 25 215 111 477
222 672 101 178 179 280 325 425 77 77 107 100 143 110 l46 14 -22 31 c-13 17
-30 41 -38 53 -69 100 -199 270 -224 293 -62 55 -133 81 -226 83 -58 1 -98 -4
-126 -15z"/>
<path d="M2858 4675 c-2 -1 -28 -5 -58 -8 -182 -20 -401 -86 -573 -174 -103
-53 -124 -71 -132 -115 -6 -29 22 -77 51 -88 41 -16 69 -12 99 16 24 22 27 31
23 72 l-5 47 71 32 c68 30 206 80 243 88 10 2 50 10 88 18 39 9 88 18 110 22
61 11 357 13 417 4 79 -13 110 -18 138 -24 14 -3 37 -7 51 -10 66 -12 279 -90
356 -130 2 -1 -1 -15 -6 -31 -29 -103 116 -158 165 -63 14 28 13 54 -5 87 -29
54 -411 210 -556 228 -10 1 -51 8 -110 20 -30 6 -361 14 -367 9z"/>
<path d="M2894 4436 c-66 -32 -101 -68 -131 -133 -22 -48 -28 -54 -47 -47 -40
15 -159 9 -196 -10 -92 -48 -142 -126 -146 -228 -4 -77 -14 -58 172 -314 354
-488 325 -452 356 -442 l28 10 0 190 c0 114 4 197 11 209 16 31 55 42 88 24
16 -8 31 -22 35 -30 3 -9 6 -101 6 -205 l0 -188 30 -11 c35 -12 0 -54 309 372
111 153 206 289 211 303 38 99 -24 241 -131 299 -57 31 -137 39 -206 22 -27
-7 -33 -6 -33 8 0 25 -35 87 -66 119 -74 73 -197 95 -290 52z"/>
<path d="M1889 4262 c-28 -12 -149 -132 -227 -225 -88 -106 -210 -323 -265
-472 -28 -73 -78 -255 -72 -255 3 0 0 -11 -4 -24 -17 -44 -26 -161 -25 -331 1
-183 4 -217 32 -345 11 -49 61 -82 104 -69 47 13 71 42 71 84 0 46 -37 87 -82
89 -28 1 -31 4 -38 46 -10 56 -10 324 -1 405 37 324 187 652 413 903 46 51 48
52 71 37 68 -44 155 11 140 89 -4 18 -14 40 -24 49 -20 18 -70 28 -93 19z"/>
<path d="M4044 4260 c-50 -20 -67 -80 -37 -130 25 -43 91 -54 125 -23 18 17
21 16 57 -22 228 -243 373 -547 426 -895 14 -92 13 -407 -1 -450 -7 -18 -17
-26 -39 -27 -65 -5 -99 -79 -62 -134 28 -40 53 -50 97 -35 41 13 66 55 76 131
3 28 8 59 11 70 12 49 11 356 -2 445 -53 379 -226 732 -483 984 -96 94 -119
106 -168 86z"/>
<path d="M2032 3881 c-90 -36 -156 -126 -169 -229 l-5 -47 -43 1 c-80 3 -175
-57 -217 -138 -30 -57 -32 -174 -4 -231 20 -41 60 -88 89 -103 16 -9 15 -14
-14 -71 -71 -138 -21 -292 117 -359 42 -20 64 -25 97 -22 23 3 188 53 367 111
179 58 351 114 382 124 53 17 58 20 58 48 l0 30 -179 58 c-98 31 -186 65 -195
75 -36 41 -9 110 45 114 13 1 102 -24 198 -56 l173 -57 17 23 c9 13 16 26 16
30 0 4 -109 158 -242 341 -197 270 -250 337 -280 352 -52 25 -155 28 -211 6z"/>
<path d="M3773 3879 c-45 -19 -56 -33 -328 -409 -81 -113 -160 -221 -176 -241
-36 -47 -37 -50 -17 -77 l16 -23 173 57 c96 32 185 57 198 56 54 -4 81 -73 45
-113 -9 -10 -97 -44 -195 -76 l-179 -57 0 -32 0 -33 358 -116 c196 -64 373
-121 392 -127 102 -33 224 33 278 151 33 72 28 167 -13 237 -21 35 -25 49 -15
52 22 8 76 69 96 109 10 21 20 66 22 100 9 139 -94 257 -237 270 l-56 5 -1 47
c-6 173 -196 290 -361 220z"/>
<path d="M2929 3186 c-117 -40 -178 -155 -149 -277 23 -94 120 -169 220 -169
61 0 114 23 161 70 137 136 49 373 -143 385 -29 2 -69 -2 -89 -9z"/>
<path d="M2580 2770 c-63 -21 -234 -77 -380 -125 -285 -93 -299 -100 -339
-180 -51 -103 -32 -223 49 -304 27 -27 64 -53 89 -61 31 -10 40 -17 36 -29
-45 -115 -5 -245 94 -312 89 -59 182 -63 276 -10 l54 31 27 -36 c15 -19 48
-47 73 -62 40 -23 57 -27 126 -27 89 0 138 19 186 72 67 72 63 44 64 511 l0
424 -23 9 c-13 5 -26 9 -30 9 -4 -1 -53 -65 -110 -144 -126 -176 -131 -180
-176 -172 -37 7 -56 29 -56 66 0 23 68 125 213 318 15 19 -12 62 -37 61 -12 0
-73 -18 -136 -39z"/>
<path d="M3252 2790 c-16 -26 -15 -31 7 -60 93 -117 201 -278 201 -298 0 -39
-18 -61 -56 -68 -46 -8 -54 -1 -179 175 -55 77 -106 141 -113 141 -7 0 -22 -5
-33 -10 -18 -10 -19 -26 -19 -421 0 -442 0 -442 55 -507 46 -55 118 -86 200
-86 83 0 138 24 195 85 l37 40 25 -20 c65 -51 185 -62 265 -24 67 31 125 105
138 173 13 74 12 90 -9 156 -5 18 0 22 32 32 54 16 121 78 148 136 44 94 25
214 -45 284 -29 29 -58 44 -137 69 -54 17 -231 75 -393 127 -162 53 -297 96
-300 96 -3 0 -12 -9 -19 -20z"/>
<path d="M1477 2394 c-62 -33 -62 -80 4 -209 228 -448 679 -792 1164 -889 186
-37 218 -37 251 -4 85 85 -36 208 -123 126 -13 -12 -23 -30 -23 -40 0 -17 -5
-18 -47 -12 -61 8 -197 47 -288 81 -327 122 -634 382 -820 695 l-47 78 31 35
c23 27 29 41 26 67 -8 62 -74 100 -128 72z"/>
<path d="M4464 2402 c-27 -4 -63 -42 -69 -71 -6 -30 10 -69 37 -90 l21 -18
-42 -72 c-89 -151 -248 -337 -383 -448 -105 -86 -261 -179 -400 -239 -85 -36
-270 -91 -334 -99 -38 -4 -43 -2 -48 21 -8 30 -60 64 -90 58 -34 -6 -63 -25
-74 -48 -26 -57 18 -128 79 -128 54 0 248 34 268 47 4 2 23 7 41 10 96 17 348
133 475 218 127 86 260 205 375 337 95 109 250 379 250 436 0 54 -51 95 -106
86z"/>
<path d="M1039 2280 c-114 -37 -219 -76 -235 -86 -133 -86 -198 -252 -157
-399 60 -213 315 -566 563 -780 30 -26 66 -57 80 -69 200 -172 529 -366 780
-459 167 -62 388 -117 493 -122 147 -7 282 74 343 208 l29 62 3 247 4 248 -38
-16 c-36 -15 -116 -21 -152 -10 -9 2 -39 7 -65 11 -83 10 -271 62 -379 105
-437 173 -799 506 -1003 922 -45 93 -53 117 -51 159 1 27 0 49 -4 48 -3 0 -98
-31 -211 -69z"/>
<path d="M4745 2298 c0 -41 -9 -72 -38 -132 -182 -383 -500 -702 -880 -886
-165 -79 -368 -145 -512 -165 -22 -3 -53 -8 -68 -11 -52 -11 -126 -5 -157 11
l-32 16 4 -243 c3 -239 3 -244 30 -300 66 -141 203 -221 363 -211 506 30 1181
413 1591 903 74 88 183 242 226 320 14 25 37 65 52 90 99 175 50 387 -113 495
-25 17 -443 165 -465 165 -1 0 -1 -24 -1 -52z"/>
</g>
</svg>
